<svg xmlns="http://www.w3.org/2000/svg" width="32" height="32" id="graph"><path fill-rule="evenodd" d="M27.5 3c-.823 0-1.5.678-1.5 1.5 0 .172.035.334.09.488L23.287 7.23A1.48 1.48 0 0 0 22.5 7c-.647 0-1.198.421-1.406 1h-4.688c-.208-.579-.76-1-1.406-1-.823 0-1.5.678-1.5 1.5 0 .257.073.496.19.709l-2.616 2.906A1.48 1.48 0 0 0 10.5 12c-.823 0-1.5.678-1.5 1.5l.002.014-2.854 1.037A1.492 1.492 0 0 0 5 14c-.353 0-.676.13-.934.338l-3.285-2.25a.5.5 0 0 0-.281-.092.5.5 0 0 0-.283.918l3.318 2.272a1.48 1.48 0 0 0-.035.314c0 .823.677 1.5 1.5 1.5s1.5-.677 1.5-1.5l-.002-.014 2.854-1.037c.276.333.687.551 1.148.551.823 0 1.5-.678 1.5-1.5 0-.257-.072-.497-.188-.709l2.616-2.906c.176.074.37.115.572.115.646 0 1.197-.422 1.406-1h4.688c.209.578.76 1 1.406 1 .823 0 1.5-.678 1.5-1.5 0-.17-.036-.333-.09-.486l2.805-2.244c.23.143.497.23.785.23a1.5 1.5 0 0 0 1.258-.695l2.615.68a.5.5 0 1 0 .252-.967l-2.643-.688A1.503 1.503 0 0 0 27.5 3zm0 1c.282 0 .5.218.5.5 0 .282-.218.5-.5.5a.493.493 0 0 1-.5-.5c0-.282.218-.5.5-.5zm3.963 3.994a.5.5 0 0 0-.365.211l-2.512 3.414A1.481 1.481 0 0 0 28 11.5c-.823 0-1.5.678-1.5 1.5 0 .208.043.405.121.586L22.7 17.182A1.473 1.473 0 0 0 22 17c-.36 0-.688.135-.947.35l-2.584-1.551c.02-.097.031-.196.031-.299 0-.822-.677-1.5-1.5-1.5s-1.5.678-1.5 1.5c0 .23.058.445.152.64l-3.01 3.01A1.474 1.474 0 0 0 12 19c-.79 0-1.44.626-1.49 1.404l-4.293 1.227A1.499 1.499 0 0 0 5 21c-.378 0-.721.148-.986.383l-3.225-2.29a.5.5 0 0 0-.28-.099v.002a.5.5 0 0 0-.298.912l3.314 2.354a1.468 1.468 0 0 0-.025.238c0 .823.677 1.5 1.5 1.5.79 0 1.44-.629 1.49-1.408l4.293-1.225A1.5 1.5 0 0 0 12 22c.823 0 1.5-.677 1.5-1.5 0-.23-.058-.445-.152-.64l3.011-3.012c.196.094.411.152.641.152.36 0 .686-.136.945-.35l2.586 1.553c-.02.096-.031.196-.031.297 0 .823.677 1.5 1.5 1.5s1.5-.677 1.5-1.5c0-.207-.044-.406-.121-.586l3.924-3.596c.21.112.445.182.697.182.823 0 1.5-.678 1.5-1.5 0-.25-.07-.485-.18-.693l2.582-3.51a.5.5 0 0 0-.388-.803.5.5 0 0 0-.051 0zM15 8c.282 0 .5.218.5.5 0 .282-.218.5-.5.5a.493.493 0 0 1-.5-.5c0-.282.218-.5.5-.5zm7.5 0c.282 0 .5.218.5.5 0 .282-.218.5-.5.5a.49.49 0 0 1-.494-.469.5.5 0 0 0 0-.062A.49.49 0 0 1 22.5 8zm5.5 4.5c.124 0 .23.046.316.117a.5.5 0 0 0 .065.065.497.497 0 0 1-.381.818.493.493 0 0 1-.5-.5c0-.282.218-.5.5-.5zm-17.5.5c.282 0 .5.218.5.5 0 .282-.218.5-.5.5a.493.493 0 0 1-.5-.5c0-.282.218-.5.5-.5zM5 15c.282 0 .5.218.5.5 0 .282-.218.5-.5.5a.493.493 0 0 1-.5-.5c0-.282.218-.5.5-.5zm12 0c.282 0 .5.218.5.5 0 .282-.218.5-.5.5a.493.493 0 0 1-.5-.5c0-.282.218-.5.5-.5zm5 3c.282 0 .5.218.5.5 0 .282-.218.5-.5.5a.493.493 0 0 1-.5-.5c0-.282.218-.5.5-.5zm5.5 0c-.823 0-1.5.677-1.5 1.5 0 .261.074.504.193.719l-3.601 3.904a1.48 1.48 0 0 0-1.711.39l-2.387-.952c.001-.021.006-.04.006-.061 0-.823-.677-1.5-1.5-1.5s-1.5.677-1.5 1.5c0 .172.035.334.09.488l-2.803 2.242A1.48 1.48 0 0 0 12 26c-.647 0-1.198.421-1.406 1H6.406c-.208-.579-.76-1-1.406-1-.303 0-.585.093-.822.25L.84 23.135a.5.5 0 0 0-.363-.139.5.5 0 0 0-.319.871l3.418 3.19a1.467 1.467 0 0 0-.076.443c0 .823.677 1.5 1.5 1.5.646 0 1.197-.422 1.406-1h4.188c.209.578.76 1 1.406 1 .823 0 1.5-.677 1.5-1.5 0-.171-.036-.334-.09-.488l2.803-2.242c.23.143.498.23.787.23.444 0 .841-.203 1.117-.514l2.389.955c0 .02-.006.039-.006.059 0 .823.677 1.5 1.5 1.5s1.5-.677 1.5-1.5c0-.25-.07-.485-.18-.693l3.62-3.92c.173.07.362.113.56.113.51 0 .963-.26 1.234-.654l2.405 2.502a.5.5 0 0 0 .72-.694l-2.914-3.031A1.505 1.505 0 0 0 27.5 18zm0 1c.25 0 .44.175.482.41a.5.5 0 0 0 0 .002.5.5 0 0 0 .018.088c0 .282-.218.5-.5.5a.493.493 0 0 1-.5-.5c0-.282.218-.5.5-.5zM12 20c.282 0 .5.218.5.5 0 .282-.218.5-.5.5a.493.493 0 0 1-.5-.5c0-.282.218-.5.5-.5zm-7 2c.282 0 .5.218.5.5 0 .282-.218.5-.5.5a.493.493 0 0 1-.5-.5c0-.282.218-.5.5-.5zm12 1c.282 0 .5.218.5.5 0 .282-.218.5-.5.5a.493.493 0 0 1-.5-.5c0-.282.218-.5.5-.5zm5 2c.282 0 .5.218.5.5 0 .282-.218.5-.5.5a.493.493 0 0 1-.5-.5c0-.282.218-.5.5-.5zM5 27c.282 0 .5.218.5.5 0 .282-.218.5-.5.5a.493.493 0 0 1-.5-.5c0-.282.218-.5.5-.5zm7 0c.282 0 .5.218.5.5 0 .282-.218.5-.5.5a.49.49 0 0 1-.494-.469.5.5 0 0 0 0-.062A.49.49 0 0 1 12 27z" color="#000" font-family="sans-serif" font-weight="400" overflow="visible" style="line-height:normal;text-indent:0;text-align:start;text-decoration-line:none;text-decoration-style:solid;text-decoration-color:#000;text-transform:none;block-progression:tb;white-space:normal;isolation:auto;mix-blend-mode:normal;solid-color:#000;solid-opacity:1"></path></svg>